<svg width="164" height="48" viewBox="0 0 164 48" fill="none" xmlns="http://www.w3.org/2000/svg">
<rect width="47.6968" height="47.6968" rx="23.8484" fill="#00D95F"/>
<path d="M11.9243 34.8896L13.6354 28.5275C12.2555 26.0491 11.817 23.157 12.4006 20.382C12.9841 17.6069 14.5505 15.135 16.8123 13.4199C19.074 11.7048 21.8794 10.8614 24.7138 11.0447C27.5481 11.2279 30.2211 12.4254 32.2424 14.4174C34.2638 16.4094 35.4977 19.0623 35.7179 21.8893C35.9381 24.7163 35.1298 27.5278 33.4412 29.8078C31.7526 32.0878 29.2971 33.6835 26.5252 34.3019C23.7534 34.9203 20.8511 34.5201 18.3509 33.1747L11.9243 34.8896ZM18.6608 30.7939L19.0583 31.0293C20.8692 32.1009 22.9843 32.5443 25.074 32.2905C27.1637 32.0367 29.1106 31.0999 30.6113 29.6261C32.112 28.1523 33.0823 26.2242 33.3708 24.1424C33.6594 22.0607 33.25 19.942 32.2066 18.1168C31.1631 16.2915 29.5442 14.8621 27.602 14.0513C25.6599 13.2405 23.5036 13.0939 21.4693 13.6343C19.4349 14.1747 17.6368 15.3717 16.3551 17.0389C15.0733 18.706 14.38 20.7497 14.3831 22.8513C14.3814 24.5939 14.8642 26.3027 15.7776 27.7877L16.0268 28.1979L15.0703 31.7489L18.6608 30.7939Z" fill="white"/>
<path fill-rule="evenodd" clip-rule="evenodd" d="M28.3072 24.4848C28.0742 24.2972 27.8014 24.1652 27.5096 24.0987C27.2177 24.0323 26.9145 24.0332 26.6231 24.1015C26.1852 24.2831 25.9023 24.9691 25.6194 25.312C25.5597 25.3943 25.472 25.4519 25.3728 25.4742C25.2736 25.4965 25.1696 25.4819 25.0804 25.4331C23.4774 24.8063 22.1337 23.6568 21.2676 22.1713C21.1937 22.0786 21.1588 21.9609 21.1701 21.843C21.1814 21.7251 21.2381 21.6162 21.3282 21.5391C21.6438 21.2273 21.8755 20.841 22.0019 20.416C22.0299 19.9473 21.9224 19.4803 21.692 19.0709C21.5139 18.497 21.1749 17.9859 20.7152 17.5981C20.4781 17.4916 20.2152 17.4559 19.9582 17.4953C19.7012 17.5347 19.4611 17.6475 19.2669 17.82C18.9297 18.1105 18.662 18.4727 18.4837 18.8801C18.3053 19.2874 18.2207 19.7296 18.2362 20.1739C18.2372 20.4234 18.2689 20.6719 18.3305 20.9137C18.4869 21.4947 18.7275 22.0498 19.0445 22.5614C19.2733 22.9533 19.5229 23.3327 19.7923 23.698C20.6677 24.8978 21.7682 25.9164 23.0325 26.6975C23.667 27.0944 24.3451 27.417 25.0535 27.6592C25.7893 27.9922 26.6018 28.12 27.4045 28.0291C27.8619 27.96 28.2953 27.7797 28.6665 27.5041C29.0377 27.2285 29.3353 26.866 29.5333 26.4486C29.6496 26.1965 29.6848 25.9146 29.6343 25.6416C29.513 25.0834 28.7653 24.7538 28.3072 24.4848Z" fill="white"/>
<rect x="57.6968" width="47.6968" height="47.6968" rx="23.8484" fill="url(#paint0_linear_986_961)"/>
<path d="M77.576 23.9094C77.576 21.7124 79.356 19.9308 81.5524 19.9308C83.7489 19.9308 85.5299 21.7124 85.5299 23.9094C85.5299 26.1065 83.7489 27.888 81.5524 27.888C79.356 27.888 77.576 26.1065 77.576 23.9094ZM75.4258 23.9094C75.4258 27.2941 78.1687 30.0378 81.5524 30.0378C84.9362 30.0378 87.679 27.2941 87.679 23.9094C87.679 20.5247 84.9362 17.781 81.5524 17.781C78.1687 17.781 75.4258 20.5247 75.4258 23.9094ZM86.4898 17.538C86.4897 17.8213 86.5736 18.0982 86.7308 18.3338C86.888 18.5694 87.1116 18.753 87.3731 18.8615C87.6347 18.9701 87.9226 18.9985 88.2004 18.9434C88.4781 18.8882 88.7333 18.7519 88.9336 18.5517C89.1339 18.3515 89.2704 18.0964 89.3257 17.8186C89.3811 17.5408 89.3528 17.2528 89.2446 16.9911C89.1363 16.7293 88.9529 16.5056 88.7175 16.3481C88.4821 16.1907 88.2053 16.1065 87.9222 16.1064H87.9216C87.542 16.1066 87.178 16.2575 86.9096 16.5259C86.6411 16.7943 86.4902 17.1584 86.4898 17.538ZM76.7322 33.624C75.5689 33.5711 74.9367 33.3772 74.5165 33.2135C73.9594 32.9966 73.562 32.7382 73.1441 32.3208C72.7262 31.9033 72.4675 31.5061 72.2516 30.9489C72.0878 30.5288 71.8941 29.8962 71.8412 28.7326C71.7833 27.4746 71.7718 27.0967 71.7718 23.9095C71.7718 20.7223 71.7843 20.3455 71.8412 19.0864C71.8942 17.9228 72.0894 17.2914 72.2516 16.8701C72.4685 16.3129 72.7268 15.9153 73.1441 15.4973C73.5614 15.0793 73.9585 14.8205 74.5165 14.6046C74.9365 14.4407 75.5689 14.2469 76.7322 14.194C77.9898 14.1361 78.3676 14.1246 81.5524 14.1246C84.7373 14.1246 85.1154 14.1371 86.3741 14.194C87.5374 14.247 88.1686 14.4422 88.5898 14.6046C89.1469 14.8205 89.5443 15.0799 89.9622 15.4973C90.3801 15.9147 90.6378 16.3129 90.8547 16.8701C91.0185 17.2902 91.2123 17.9228 91.2651 19.0864C91.323 20.3455 91.3345 20.7223 91.3345 23.9095C91.3345 27.0967 91.323 27.4735 91.2651 28.7326C91.2122 29.8962 91.0174 30.5286 90.8547 30.9489C90.6378 31.5061 90.3795 31.9037 89.9622 32.3208C89.5449 32.7378 89.1469 32.9966 88.5898 33.2135C88.1699 33.3773 87.5374 33.5711 86.3741 33.624C85.1165 33.6819 84.7387 33.6935 81.5524 33.6935C78.3662 33.6935 77.9895 33.6819 76.7322 33.624ZM76.6334 12.0469C75.3632 12.1047 74.4953 12.3062 73.7373 12.6012C72.9523 12.9059 72.2878 13.3146 71.6237 13.9778C70.9597 14.641 70.5521 15.3068 70.2475 16.092C69.9526 16.8507 69.7512 17.7184 69.6934 18.9889C69.6346 20.2615 69.6211 20.6683 69.6211 23.9094C69.6211 27.1505 69.6346 27.5573 69.6934 28.8299C69.7512 30.1005 69.9526 30.9681 70.2475 31.7268C70.5521 32.5115 70.9598 33.1781 71.6237 33.841C72.2877 34.5039 72.9523 34.912 73.7373 35.2176C74.4967 35.5126 75.3632 35.7141 76.6334 35.7719C77.9062 35.8298 78.3123 35.8442 81.5524 35.8442C84.7926 35.8442 85.1993 35.8307 86.4715 35.7719C87.7418 35.7141 88.6091 35.5126 89.3676 35.2176C90.1521 34.912 90.8171 34.5042 91.4811 33.841C92.1452 33.1778 92.5519 32.5115 92.8574 31.7268C93.1523 30.9681 93.3546 30.1004 93.4115 28.8299C93.4694 27.5564 93.4828 27.1505 93.4828 23.9094C93.4828 20.6683 93.4694 20.2615 93.4115 18.9889C93.3537 17.7183 93.1523 16.8502 92.8574 16.092C92.5519 15.3073 92.1441 14.6421 91.4811 13.9778C90.8181 13.3136 90.1521 12.9059 89.3685 12.6012C88.6091 12.3062 87.7417 12.1038 86.4725 12.0469C85.2003 11.989 84.7936 11.9746 81.5534 11.9746C78.3132 11.9746 77.9062 11.9881 76.6334 12.0469Z" fill="white"/>
<rect x="115.394" width="47.6968" height="47.6968" rx="23.8484" fill="#337FFF"/>
<path d="M145.077 25.4009L145.757 21.0831H141.571V18.2765C141.571 17.0958 142.155 15.9421 144.024 15.9421H145.954V12.2652C144.83 12.086 143.694 11.989 142.556 11.9751C139.111 11.9751 136.861 14.0463 136.861 17.7907V21.0831H133.042V25.4009H136.861V35.8447H141.571V25.4009H145.077Z" fill="white"/>
<defs>
<linearGradient id="paint0_linear_986_961" x1="104.477" y1="47.6968" x2="56.78" y2="-1.28386e-06" gradientUnits="userSpaceOnUse">
<stop stop-color="#FBE18A"/>
<stop offset="0.21" stop-color="#FCBB45"/>
<stop offset="0.38" stop-color="#F75274"/>
<stop offset="0.52" stop-color="#D53692"/>
<stop offset="0.74" stop-color="#8F39CE"/>
<stop offset="1" stop-color="#5B4FE9"/>
</linearGradient>
</defs>
</svg>
