<svg width="296" height="102" viewBox="0 0 296 102" fill="none" xmlns="http://www.w3.org/2000/svg">
<path d="M31.7499 40.9342V2.68871L31.7485 2.61017C31.7485 1.16913 32.9338 0 34.3948 0C35.8563 0 37.0417 1.16913 37.0417 2.61017L37.0394 2.71076V40.9333C36.1703 40.8579 35.2908 40.8175 34.4012 40.8175C33.5071 40.8175 32.6231 40.8584 31.7499 40.9342ZM36.9088 59.9081L36.9106 59.9912L36.911 59.9956L36.9138 60.014H36.911C36.911 61.4363 35.7417 62.5897 34.2998 62.5897C32.8578 62.5897 31.6884 61.4363 31.6884 60.014H31.6857V59.9413C31.6857 59.5545 31.7066 59.1717 31.7499 58.7964C31.7499 58.7875 31.7499 58.779 31.7544 58.7713V58.7668H31.7535C31.5501 57.8594 31.1097 57.0363 30.5018 56.3685C29.8284 55.6275 28.9488 55.0741 27.9505 54.7977C27.4768 54.6616 26.9745 54.5889 26.4577 54.5889C25.9384 54.5889 25.4379 54.6616 24.9624 54.7977C23.0732 55.3258 21.6044 56.845 21.1681 58.7515V65.235C21.5257 65.235 21.8811 65.2484 22.2342 65.2735C23.7061 65.3669 25.1226 65.6609 26.4567 66.1249C26.7375 66.2228 27.0141 66.3296 27.2911 66.4454C28.8878 67.1006 30.3511 68.0113 31.6334 69.1269C31.6725 69.1566 31.7117 69.1906 31.7489 69.2261C32.1849 69.609 32.6049 70.0209 32.9939 70.4509C34.3625 71.9593 35.4422 73.7258 36.1367 75.6718C36.72 77.3046 37.0389 79.0576 37.0389 80.8895V81.0386H37.1121C37.7255 81.0386 38.3211 80.9869 38.9044 80.8891C40.1298 80.6854 41.2878 80.272 42.3312 79.689C44.0333 78.7474 45.4453 77.3548 46.4031 75.6732C46.9987 74.6333 47.4182 73.4879 47.6198 72.2658C47.6212 72.2658 47.6212 72.2658 47.6212 72.2645V58.7165L47.6198 58.7147C47.1761 56.8285 45.7115 55.3258 43.8336 54.7977C43.3595 54.6616 42.859 54.5889 42.3403 54.5889H42.3312C41.8184 54.5889 41.3178 54.6616 40.8474 54.7977C40.5061 54.8909 40.178 55.0189 39.8664 55.1764C38.4503 55.8927 37.398 57.1992 37.043 58.7713C37.0475 58.7578 37.043 58.7412 37.0385 58.7283V58.792C36.9552 59.1524 36.911 59.5239 36.9088 59.9081ZM66.1406 20.875C67.6021 20.875 68.7875 22.0441 68.7875 23.4853L68.7847 23.597V67.8452C68.7847 68.7231 68.7497 69.591 68.6855 70.4509C68.5467 72.2367 68.2719 73.978 67.8614 75.6732C67.4342 77.4688 66.8596 79.216 66.1469 80.8895C65.4089 82.6479 64.5203 84.33 63.4961 85.9274C63.457 85.9866 63.4179 86.0463 63.3786 86.1096C62.1624 87.9842 60.7637 89.7345 59.2094 91.3318C58.8813 91.667 58.5474 91.9992 58.2015 92.3241C56.5835 93.8563 54.8121 95.2355 52.9134 96.4365C52.8534 96.4706 52.7932 96.5091 52.7332 96.5482C51.1183 97.5566 49.4084 98.4345 47.6207 99.1674C45.9244 99.8653 44.1581 100.435 42.3325 100.856C40.614 101.261 38.8485 101.534 37.0394 101.671C36.1671 101.734 35.2817 101.769 34.3917 101.769C33.5031 101.769 32.6221 101.734 31.7494 101.671C29.9412 101.534 28.1757 101.261 26.4572 100.856C24.6344 100.435 22.8648 99.8685 21.1681 99.1674C19.3808 98.4345 17.6708 97.5566 16.0515 96.5482C15.9959 96.5091 15.9359 96.4755 15.8741 96.4365C14.7046 95.6995 13.5825 94.8913 12.5165 94.0224L12.5029 94.0102C11.8385 93.4734 11.1992 92.9115 10.5814 92.3241C10.2401 91.9992 9.90286 91.667 9.5753 91.3318C8.97969 90.7223 8.40999 90.0918 7.86578 89.4365L7.85349 89.423C6.97258 88.3715 6.15179 87.2639 5.40596 86.1096C5.36686 86.0503 5.33232 85.9911 5.29312 85.935C4.26888 84.339 3.38025 82.6525 2.63768 80.8895C1.92476 79.216 1.35048 77.4688 0.923275 75.6732C0.512831 73.978 0.237974 72.2367 0.0992291 70.4509C0.0350369 69.591 0 68.7231 0 67.8452C0 66.9687 0.0350369 66.0952 0.0992291 65.235H0V33.923H0.000406677C0.000406677 32.4819 1.18573 31.3128 2.64681 31.3128C4.1083 31.3128 5.29362 32.4819 5.29362 33.923L5.29312 33.9566V70.4509H5.41327C5.56522 72.1388 5.8674 73.7864 6.3078 75.3747C6.26921 75.473 6.23457 75.5749 6.19546 75.6732H6.38926C6.90798 77.4912 7.60688 79.2371 8.46596 80.8895C9.08797 82.095 9.79643 83.2533 10.5814 84.3525C11.014 84.9562 11.4667 85.5431 11.9468 86.1096C12.0069 86.1872 12.0715 86.264 12.1361 86.3353C12.1361 86.3398 12.1407 86.3483 12.148 86.3532C13.017 87.7499 14.2128 88.9293 15.6292 89.7848C15.6337 89.7937 15.6411 89.7982 15.6456 89.7982C15.7193 89.8624 15.7976 89.9257 15.8741 89.985C16.4488 90.4584 17.0453 90.905 17.6591 91.3318C18.7716 92.1059 19.9459 92.8047 21.1681 93.4214C22.8435 94.2656 24.6135 94.955 26.4572 95.4666V95.6582C26.5559 95.6192 26.6597 95.5851 26.7593 95.547C28.3696 95.9813 30.0399 96.2794 31.7494 96.4293V96.5482H37.0394V96.4293C38.8558 96.2704 40.6258 95.9428 42.3325 95.4666C44.1758 94.955 45.9454 94.2656 47.6207 93.4214C48.8429 92.8047 50.0172 92.1059 51.1302 91.3318C51.7436 90.905 52.3387 90.4584 52.9134 89.985C54.3435 88.818 55.6594 87.5246 56.8424 86.1096C57.3179 85.5431 57.7747 84.9562 58.2015 84.3525C58.9883 83.2533 59.6967 82.095 60.3233 80.8895C61.1778 79.2371 61.8767 77.4912 62.3986 75.6732C62.8827 73.9915 63.2149 72.2438 63.3746 70.4509C63.4569 69.591 63.4961 68.7231 63.4961 67.8452V23.575L63.4942 23.4853C63.4942 22.0441 64.6796 20.875 66.1406 20.875ZM50.2675 10.4373C51.729 10.4373 52.9143 11.6064 52.9143 13.0475L52.9139 13.0811V42.8187H52.7241C52.7892 42.8631 52.8538 42.9066 52.9139 42.9506V47.2013C51.2886 45.9127 49.515 44.7908 47.6212 43.8617V13.0475C47.6212 11.6064 48.8064 10.4373 50.2675 10.4373ZM18.5213 10.4377C19.9828 10.4377 21.1681 11.6068 21.1681 13.048L21.1676 13.0843L21.1681 13.0865V50.8199C22.2401 50.2122 23.4259 49.7854 24.6907 49.5758C25.265 49.4825 25.8561 49.4323 26.4577 49.4323C27.0573 49.4323 27.6484 49.4825 28.2226 49.5758C29.4871 49.7854 30.6796 50.2122 31.7499 50.8204C32.7468 51.3822 33.6372 52.099 34.4012 52.9369C35.1561 52.099 36.0457 51.3867 37.0385 50.8293C38.1136 50.2149 39.3063 49.785 40.5749 49.5758C41.145 49.4825 41.7314 49.4323 42.3312 49.4323H42.3403C42.94 49.4323 43.5324 49.4825 44.1071 49.5758C45.367 49.7818 46.5505 50.2078 47.6212 50.8159C49.2961 51.7574 50.687 53.1366 51.6312 54.7977C52.3005 55.9609 52.7455 57.2674 52.9139 58.6555V70.5231C52.9139 72.3301 52.6026 74.0637 52.033 75.6732C51.3422 77.6186 50.2721 79.3865 48.9111 80.8891C48.5052 81.3397 48.0735 81.7669 47.6212 82.1628C46.0964 83.5083 44.301 84.5593 42.3312 85.242C40.6949 85.8039 38.9391 86.1096 37.1121 86.1096H37.0385H36.1343L36.1348 86.1087L36.1325 86.11H30.3298C30.5677 85.7141 30.7702 85.3062 30.9463 84.8789C31.4651 83.6524 31.7489 82.3028 31.7489 80.8895V79.6123C31.7194 79.5944 31.6889 79.5781 31.6593 79.5607C31.4878 78.1604 31.0196 76.8431 30.3298 75.6718C28.6963 72.8749 25.7087 70.8826 22.4467 70.5164C19.9492 70.235 17.7227 70.9123 15.8749 71.3108V39.2547C15.9396 39.2162 16 39.1776 16.0611 39.139H15.8749V13.0865L15.8754 13.0843L15.8749 13.048C15.8749 11.6068 17.0602 10.4377 18.5213 10.4377ZM36.9852 82.1946C36.9147 83.0384 36.7764 83.8633 36.5752 84.6639C36.7764 83.8638 36.9152 83.0389 36.9852 82.1946ZM36.5752 84.6653C36.5429 84.7941 36.5084 84.922 36.4729 85.0494C36.5088 84.922 36.5429 84.7941 36.5752 84.6653Z" fill="#273252"/>
<path fill-rule="evenodd" clip-rule="evenodd" d="M37.0451 58.7648C37.0449 58.767 37.0444 58.7692 37.0437 58.7713C37.0442 58.7691 37.0447 58.767 37.0451 58.7648ZM34.3004 62.5896C32.8584 62.5896 31.689 61.4363 31.689 60.014H31.6864V59.9413C31.6864 59.5545 31.7073 59.1717 31.7505 58.7964C31.7505 58.7875 31.7505 58.7789 31.7549 58.7713L31.7541 58.7668C31.5507 57.8594 31.1103 57.0363 30.5024 56.3683C29.829 55.6275 28.9495 55.0742 27.951 54.7975C27.4774 54.6616 26.9751 54.5889 26.4582 54.5889C25.939 54.5889 25.4385 54.6616 24.9631 54.7975C23.0739 55.3258 21.605 56.845 21.1687 58.7515V65.2349C21.5263 65.2349 21.8816 65.2484 22.2348 65.2734C23.7067 65.3669 25.1231 65.6608 26.4574 66.1249C26.738 66.2228 27.0147 66.3296 27.2919 66.4454C28.8884 67.1006 30.3518 68.0112 31.634 69.1269C31.6732 69.1564 31.7123 69.1906 31.7496 69.2261C32.1855 69.609 32.6055 70.0209 32.9945 70.4509C34.3631 71.9593 35.4428 73.7258 36.1373 75.6718C36.7206 77.3046 37.0395 79.0575 37.0395 80.8895V81.0385H37.1127C37.7261 81.0385 38.3218 80.9869 38.9051 80.8891C40.1304 80.6853 41.2884 80.2719 42.3317 79.689C44.034 78.7475 45.4459 77.3547 46.4037 75.6732C46.9993 74.6333 47.4188 73.4879 47.6204 72.2658C47.6218 72.2658 47.6218 72.2658 47.6218 72.2644V58.7165L47.6204 58.7147C47.1768 56.8285 45.7121 55.3258 43.8342 54.7975C43.3601 54.6616 42.8596 54.5889 42.3409 54.5889H42.3317C41.819 54.5889 41.3185 54.6616 40.848 54.7975C40.5067 54.8909 40.1786 55.0189 39.867 55.1764C38.453 55.8917 37.4014 57.1955 37.0451 58.7648C37.0467 58.7528 37.043 58.7393 37.0391 58.7283V58.792C36.9558 59.1523 36.9116 59.5239 36.9094 59.9081L36.9111 59.9911L36.9116 59.9956L36.9145 60.014H36.9116C36.9116 61.4363 35.7423 62.5896 34.3004 62.5896Z" fill="#FE434C"/>
<path d="M113.38 65.4804V54.2225H94.6482V19.8527H81.6902V65.4804H113.38ZM148.763 65.4804V55.8118H131.642V47.4677H146.883V37.7992H131.642V29.5213H146.883L149.3 19.8527H118.684V65.4804H148.763ZM169.039 65.4804V48.3286H184.817V65.4804H197.775V19.8527H184.817V37.0707H169.039V19.8527H156.081V65.4804H169.039ZM250.949 65.4804L226.242 17.866L201.535 65.4804H214.963L217.379 60.1825H235.104L237.521 65.4804H250.949ZM226.242 40.9779L230.807 50.8451H221.676L226.242 40.9779ZM296 65.4804L284.721 48.8584C290.562 45.6135 292.173 39.4548 292.173 35.4813C292.173 26.0115 284.586 19.8527 274.65 19.8527H254.709V65.4804H266.996V51.11H272.635L281.834 65.4804H296ZM274.448 30.9782C277.134 30.9782 279.081 33.2298 279.081 35.8787C279.081 38.3951 277.134 40.5805 274.448 40.5805H266.996V30.9782H274.448Z" fill="#273252"/>
<path d="M91.1811 91.1253H93.8861V77.9345H91.1811V83.3265H85.2984V77.9345H82.5745V91.1253H85.2984V85.6773H91.1811V91.1253ZM106.37 91.1253H115.639V88.7745H109.094V85.5841H114.996V83.2332H109.094V80.2854H115.639V77.9345H106.37V91.1253ZM126.951 91.1253H129.92L130.923 88.2148H136.257L137.26 91.1253H140.211L135.217 77.8598H131.944L126.951 91.1253ZM131.661 86.0132L133.571 80.1547H133.609L135.519 86.0132H131.661ZM151.617 91.1253H160.885V88.7745H154.341V77.9345H151.617V91.1253ZM174.353 91.1253H177.058V80.248H181.352V77.9345H170.022V80.248H174.353V91.1253ZM201.478 91.1253H204.183V77.9345H201.478V83.3265H195.596V77.9345H192.872V91.1253H195.596V85.6773H201.478V91.1253ZM222.096 91.3118C226.315 91.3118 227.904 88.9238 227.866 86.1252H225.066C225.066 87.823 224.196 89.0171 222.153 89.0171C219.448 89.0171 218.843 86.8901 218.843 84.5206C218.843 82.1697 219.486 80.0055 222.153 80.0055C224.101 80.0055 225.066 81.1435 225.066 82.7668H227.866C227.866 79.7069 226.05 77.7479 222.172 77.7479C217.065 77.7479 215.968 81.2742 215.968 84.5206C215.968 88.4573 217.594 91.3118 222.096 91.3118ZM238.307 91.1253H241.277L242.279 88.2148H247.614L248.616 91.1253H251.567L246.573 77.8598H243.301L238.307 91.1253ZM243.017 86.0132L244.928 80.1547H244.965L246.876 86.0132H243.017ZM271.05 91.1253H274.001C273.623 90.3977 273.055 88.2707 272.753 87.3752C272.336 86.0132 272.015 85.4348 270.861 84.9311V84.8751C272.128 84.4833 273.169 83.4198 273.169 81.5914C273.169 78.1584 269.48 77.9345 268.251 77.9345H262.973V91.1253H265.697V85.9385H267.626C268.44 85.9385 269.423 85.9199 269.915 87.4872C270.256 88.6252 270.445 89.5394 271.05 91.1253ZM265.697 83.9609V80.1734H267.702C268.686 80.1734 270.331 80.1734 270.331 82.0392C270.331 83.5317 269.31 83.9609 267.683 83.9609H265.697ZM285.464 91.1253H294.733V88.7745H288.188V85.5841H294.089V83.2332H288.188V80.2854H294.733V77.9345H285.464V91.1253Z" fill="#273252"/>
</svg>
