<svg width="125" height="44" viewBox="0 0 125 44" fill="none" xmlns="http://www.w3.org/2000/svg">
<path d="M13.4079 17.7399V1.36539L13.4073 1.33176C13.4073 0.714788 13.9079 0.214233 14.5249 0.214233C15.1421 0.214233 15.6426 0.714788 15.6426 1.33176L15.6417 1.37483V17.7395C15.2746 17.7072 14.9032 17.69 14.5276 17.69C14.15 17.69 13.7767 17.7075 13.4079 17.7399ZM15.5865 25.8635L15.5873 25.899L15.5875 25.9009L15.5886 25.9088H15.5875C15.5875 26.5178 15.0936 27.0116 14.4847 27.0116C13.8758 27.0116 13.382 26.5178 13.382 25.9088H13.3808V25.8777C13.3808 25.7121 13.3896 25.5482 13.4079 25.3875C13.4079 25.3837 13.4079 25.38 13.4098 25.3768V25.3748H13.4094C13.3235 24.9863 13.1376 24.6339 12.8808 24.348C12.5965 24.0308 12.225 23.7938 11.8035 23.6755C11.6034 23.6172 11.3913 23.5861 11.173 23.5861C10.9537 23.5861 10.7424 23.6172 10.5416 23.6755C9.74379 23.9016 9.12351 24.552 8.93925 25.3683V28.1441C9.09027 28.1441 9.24035 28.1499 9.38945 28.1606C10.0111 28.2006 10.6092 28.3265 11.1726 28.5251C11.2912 28.5671 11.408 28.6128 11.525 28.6624C12.1993 28.9429 12.8172 29.3328 13.3587 29.8104C13.3752 29.8231 13.3918 29.8377 13.4075 29.8529C13.5916 30.0168 13.769 30.1932 13.9333 30.3773C14.5112 31.0231 14.9672 31.7794 15.2604 32.6126C15.5068 33.3116 15.6415 34.0622 15.6415 34.8465V34.9103H15.6724C15.9314 34.9103 16.1829 34.8882 16.4293 34.8463C16.9467 34.7591 17.4358 34.5821 17.8764 34.3325C18.5952 33.9294 19.1914 33.3331 19.5959 32.6132C19.8474 32.1679 20.0246 31.6776 20.1097 31.1543C20.1103 31.1543 20.1103 31.1543 20.1103 31.1538V25.3533L20.1097 25.3525C19.9224 24.545 19.3039 23.9016 18.5109 23.6755C18.3106 23.6172 18.0993 23.5861 17.8802 23.5861H17.8764C17.6598 23.5861 17.4484 23.6172 17.2498 23.6755C17.1056 23.7154 16.9671 23.7702 16.8355 23.8376C16.2375 24.1443 15.7931 24.7037 15.6432 25.3768C15.6451 25.371 15.6432 25.3639 15.6413 25.3583V25.3856C15.6061 25.5399 15.5875 25.699 15.5865 25.8635ZM27.9311 9.15172C28.5482 9.15172 29.0488 9.65227 29.0488 10.2693L29.0476 10.3171V29.2617C29.0476 29.6375 29.0329 30.0091 29.0057 30.3773C28.9472 31.1419 28.8311 31.8874 28.6577 32.6132C28.4773 33.3819 28.2347 34.13 27.9337 34.8465C27.6221 35.5994 27.2468 36.3195 26.8143 37.0034C26.7977 37.0288 26.7812 37.0543 26.7647 37.0814C26.2511 37.8841 25.6604 38.6334 25.004 39.3173C24.8655 39.4608 24.7244 39.603 24.5784 39.7421C23.8951 40.3981 23.1471 40.9886 22.3452 41.5028C22.3199 41.5174 22.2945 41.5339 22.2691 41.5507C21.5872 41.9824 20.8651 42.3583 20.1101 42.6721C19.3938 42.9708 18.6479 43.2149 17.8769 43.3951C17.1512 43.5684 16.4056 43.6853 15.6417 43.7439C15.2733 43.771 14.8994 43.7858 14.5235 43.7858C14.1483 43.7858 13.7763 43.771 13.4077 43.7439C12.6441 43.6853 11.8986 43.5684 11.1728 43.3951C10.403 43.2149 9.65577 42.9722 8.93925 42.6721C8.18446 42.3583 7.46236 41.9824 6.77852 41.5507C6.75506 41.5339 6.72971 41.5195 6.70359 41.5028C6.20972 41.1873 5.73588 40.8413 5.28568 40.4692L5.27993 40.4641C4.99937 40.2342 4.7294 39.9937 4.46849 39.7421C4.32437 39.603 4.18196 39.4608 4.04363 39.3173C3.79211 39.0564 3.55152 38.7864 3.3217 38.5058L3.31651 38.5001C2.9445 38.0499 2.59789 37.5757 2.28293 37.0814C2.26641 37.0561 2.25183 37.0307 2.23527 37.0067C1.80274 36.3234 1.42747 35.6013 1.11389 34.8465C0.81282 34.13 0.570304 33.3819 0.389897 32.6132C0.216567 31.8874 0.100496 31.1419 0.0419043 30.3773C0.014796 30.0091 0 29.6375 0 29.2617C0 28.8864 0.014796 28.5124 0.0419043 28.1441H0V14.7381H0.000171739C0.000171739 14.1212 0.50073 13.6206 1.11774 13.6206C1.73493 13.6206 2.23549 14.1212 2.23549 14.7381L2.23527 14.7525V30.3773H2.28601C2.35018 31.1 2.47779 31.8054 2.66377 32.4854C2.64747 32.5275 2.63284 32.5711 2.61633 32.6132H2.69817C2.91722 33.3915 3.21237 34.139 3.57516 34.8465C3.83783 35.3626 4.13701 35.8586 4.46849 36.3291C4.65121 36.5876 4.84238 36.8389 5.04509 37.0814C5.07049 37.1147 5.09776 37.1475 5.12504 37.1781C5.12504 37.18 5.12697 37.1837 5.13006 37.1858C5.49705 37.7837 6.00203 38.2887 6.60017 38.655C6.6021 38.6588 6.60519 38.6607 6.60712 38.6607C6.63822 38.6882 6.67129 38.7153 6.70359 38.7407C6.94628 38.9434 7.19819 39.1346 7.45739 39.3173C7.92719 39.6488 8.42312 39.9479 8.93925 40.2119C9.64676 40.5734 10.3942 40.8685 11.1728 41.0876V41.1696C11.2145 41.1529 11.2583 41.1383 11.3004 41.122C11.9804 41.308 12.6858 41.4356 13.4077 41.4997V41.5507H15.6417V41.4997C16.4087 41.4317 17.1562 41.2915 17.8769 41.0876C18.6554 40.8685 19.4026 40.5734 20.1101 40.2119C20.6262 39.9479 21.1222 39.6488 21.5922 39.3173C21.8512 39.1346 22.1025 38.9434 22.3452 38.7407C22.9492 38.2411 23.5049 37.6873 24.0044 37.0814C24.2052 36.8389 24.3982 36.5876 24.5784 36.3291C24.9106 35.8586 25.2098 35.3626 25.4744 34.8465C25.8353 34.139 26.1304 33.3915 26.3508 32.6132C26.5552 31.8932 26.6955 31.1449 26.763 30.3773C26.7977 30.0091 26.8143 29.6375 26.8143 29.2617V10.3077L26.8135 10.2693C26.8135 9.65227 27.314 9.15172 27.9311 9.15172ZM21.2279 4.68288C21.845 4.68288 22.3456 5.18345 22.3456 5.80042L22.3454 5.81483V18.5467H22.2653C22.2928 18.5658 22.32 18.5844 22.3454 18.6032V20.4231C21.6591 19.8714 20.9101 19.3911 20.1103 18.9933V5.80042C20.1103 5.18345 20.6108 4.68288 21.2279 4.68288ZM7.8215 4.68306C8.43869 4.68306 8.93925 5.18361 8.93925 5.80063L8.93903 5.8162L8.93925 5.81715V21.9724C9.39194 21.7122 9.89271 21.5295 10.4269 21.4398C10.6694 21.3998 10.919 21.3783 11.173 21.3783C11.4263 21.3783 11.6758 21.3998 11.9184 21.4398C12.4523 21.5295 12.9559 21.7122 13.4079 21.9726C13.8289 22.2132 14.2049 22.5201 14.5276 22.8788C14.8464 22.5201 15.222 22.2151 15.6413 21.9764C16.0953 21.7134 16.599 21.5293 17.1347 21.4398C17.3754 21.3998 17.6231 21.3783 17.8764 21.3783H17.8802C18.1335 21.3783 18.3836 21.3998 18.6263 21.4398C19.1584 21.528 19.6582 21.7103 20.1103 21.9707C20.8176 22.3738 21.405 22.9643 21.8037 23.6755C22.0864 24.1735 22.2743 24.7329 22.3454 25.3272V30.4082C22.3454 31.1818 22.214 31.9241 21.9734 32.6132C21.6817 33.4461 21.2298 34.203 20.6551 34.8463C20.4837 35.0392 20.3013 35.2222 20.1103 35.3916C19.4664 35.9677 18.7082 36.4177 17.8764 36.71C17.1854 36.9506 16.4439 37.0814 15.6724 37.0814H15.6413H15.2595L15.2597 37.0811L15.2587 37.0816H12.8082C12.9087 36.9121 12.9942 36.7375 13.0686 36.5546C13.2876 36.0294 13.4075 35.4516 13.4075 34.8465V34.2997C13.395 34.292 13.3822 34.2851 13.3696 34.2776C13.2972 33.6781 13.0995 33.1141 12.8082 32.6126C12.1184 31.4151 10.8567 30.5621 9.47918 30.4053C8.42449 30.2849 7.48428 30.5748 6.70393 30.7455V17.0209C6.73125 17.0044 6.75678 16.9878 6.78255 16.9713H6.70393V5.81715L6.70414 5.8162L6.70393 5.80063C6.70393 5.18361 7.20449 4.68306 7.8215 4.68306ZM15.6188 35.4053C15.589 35.7665 15.5306 36.1197 15.4457 36.4625C15.5306 36.1199 15.5892 35.7667 15.6188 35.4053ZM15.4457 36.4631C15.432 36.5182 15.4174 36.573 15.4024 36.6276C15.4176 36.573 15.432 36.5182 15.4457 36.4631Z" fill="#273252"/>
<path fill-rule="evenodd" clip-rule="evenodd" d="M15.6438 25.374C15.6437 25.3749 15.6435 25.3759 15.6432 25.3768C15.6434 25.3758 15.6436 25.3749 15.6438 25.374ZM14.4847 27.0116C13.8757 27.0116 13.3819 26.5178 13.3819 25.9088H13.3808V25.8777C13.3808 25.7121 13.3896 25.5482 13.4079 25.3875C13.4079 25.3837 13.4079 25.38 13.4098 25.3768L13.4094 25.3749C13.3235 24.9863 13.1375 24.6339 12.8808 24.348C12.5964 24.0308 12.225 23.7939 11.8034 23.6754C11.6034 23.6172 11.3912 23.5861 11.1729 23.5861C10.9537 23.5861 10.7423 23.6172 10.5416 23.6754C9.74375 23.9016 9.12348 24.552 8.93921 25.3683V28.1441C9.09023 28.1441 9.24027 28.1499 9.38941 28.1606C10.011 28.2006 10.6092 28.3265 11.1726 28.5252C11.2911 28.5671 11.4079 28.6128 11.525 28.6624C12.1992 28.9429 12.8172 29.3328 13.3587 29.8104C13.3752 29.8231 13.3917 29.8377 13.4075 29.8529C13.5916 30.0168 13.7689 30.1932 13.9332 30.3773C14.5112 31.0231 14.9671 31.7794 15.2604 32.6126C15.5067 33.3117 15.6414 34.0622 15.6414 34.8465V34.9103H15.6723C15.9314 34.9103 16.1829 34.8882 16.4292 34.8464C16.9467 34.7591 17.4357 34.5821 17.8763 34.3325C18.5952 33.9294 19.1914 33.3331 19.5959 32.6132C19.8474 32.168 20.0246 31.6776 20.1097 31.1544C20.1103 31.1544 20.1103 31.1544 20.1103 31.1538V25.3533L20.1097 25.3525C19.9224 24.545 19.3038 23.9016 18.5108 23.6754C18.3106 23.6172 18.0992 23.5861 17.8802 23.5861H17.8763C17.6598 23.5861 17.4484 23.6172 17.2497 23.6754C17.1056 23.7154 16.9671 23.7702 16.8355 23.8377C16.2383 24.1439 15.7943 24.7021 15.6438 25.374C15.6445 25.3688 15.6429 25.3631 15.6413 25.3583V25.3856C15.6061 25.5399 15.5874 25.699 15.5865 25.8635L15.5872 25.899L15.5874 25.9009L15.5886 25.9088H15.5874C15.5874 26.5178 15.0936 27.0116 14.4847 27.0116Z" fill="#FE434C"/>
<path d="M47.8799 28.2491V23.4291H39.9694V8.71395H34.4973V28.2491H47.8799ZM62.8219 28.2491V24.1096H55.5919V20.5371H62.028V16.3976H55.5919V12.8535H62.028L63.0487 8.71395H50.1198V28.2491H62.8219ZM71.3845 28.2491V20.9057H78.0474V28.2491H83.5196V8.71395H78.0474V16.0857H71.3845V8.71395H65.9124V28.2491H71.3845ZM105.975 28.2491L95.5412 7.86334L85.1073 28.2491H90.7779L91.7986 25.9809H99.2838L100.305 28.2491H105.975ZM95.5412 17.7585L97.4692 21.9831H93.6132L95.5412 17.7585ZM125 28.2491L120.237 21.1325C122.703 19.7432 123.384 17.1064 123.384 15.4052C123.384 11.3508 120.18 8.71395 115.984 8.71395H107.563V28.2491H112.751V22.0965H115.133L119.017 28.2491H125ZM115.899 13.4772C117.033 13.4772 117.855 14.4413 117.855 15.5754C117.855 16.6528 117.033 17.5884 115.899 17.5884H112.751V13.4772H115.899Z" fill="#273252"/>
<path d="M38.5059 39.2289H39.6482V33.5814H38.5059V35.8899H36.0216V33.5814H34.8713V39.2289H36.0216V36.8964H38.5059V39.2289ZM44.9203 39.2289H48.8344V38.2225H46.0706V36.8565H48.5629V35.85H46.0706V34.5879H48.8344V33.5814H44.9203V39.2289ZM53.6113 39.2289H54.8654L55.2888 37.9828H57.5414L57.9648 39.2289H59.2109L57.1021 33.5494H55.7202L53.6113 39.2289ZM55.6004 37.0402L56.4071 34.532H56.4231L57.2299 37.0402H55.6004ZM64.0277 39.2289H67.9419V38.2225H65.178V33.5814H64.0277V39.2289ZM73.6293 39.2289H74.7716V34.5719H76.5849V33.5814H71.8001V34.5719H73.6293V39.2289ZM85.0842 39.2289H86.2265V33.5814H85.0842V35.8899H82.5999V33.5814H81.4496V39.2289H82.5999V36.8964H85.0842V39.2289ZM93.7912 39.3088C95.5725 39.3088 96.2435 38.2864 96.2275 37.0882H95.0453C95.0453 37.8151 94.6778 38.3263 93.8151 38.3263C92.6729 38.3263 92.4172 37.4156 92.4172 36.4012C92.4172 35.3947 92.6888 34.468 93.8151 34.468C94.6379 34.468 95.0453 34.9553 95.0453 35.6503H96.2275C96.2275 34.3402 95.4607 33.5015 93.8231 33.5015C91.6663 33.5015 91.203 35.0112 91.203 36.4012C91.203 38.0867 91.89 39.3088 93.7912 39.3088ZM100.637 39.2289H101.891L102.314 37.9828H104.567L104.99 39.2289H106.237L104.128 33.5494H102.746L100.637 39.2289ZM102.626 37.0402L103.433 34.532H103.449L104.255 37.0402H102.626ZM114.464 39.2289H115.71C115.551 38.9174 115.311 38.0067 115.183 37.6233C115.007 37.0402 114.872 36.7926 114.384 36.5769V36.5529C114.92 36.3852 115.359 35.9299 115.359 35.147C115.359 33.6772 113.801 33.5814 113.282 33.5814H111.053V39.2289H112.204V37.0082H113.018C113.362 37.0082 113.777 37.0003 113.985 37.6713C114.129 38.1585 114.209 38.5499 114.464 39.2289ZM112.204 36.1615V34.5399H113.05C113.466 34.5399 114.161 34.5399 114.161 35.3388C114.161 35.9778 113.729 36.1615 113.042 36.1615H112.204ZM120.551 39.2289H124.465V38.2225H121.701V36.8565H124.194V35.85H121.701V34.5879H124.465V33.5814H120.551V39.2289Z" fill="#273252"/>
</svg>
