<svg width="36" height="36" viewBox="0 0 36 36" fill="none" xmlns="http://www.w3.org/2000/svg">
<path d="M29.925 31.5C26.8 31.5 23.7065 30.825 20.6445 29.475C17.5825 28.125 14.801 26.2 12.3 23.7C9.8 21.2 7.875 18.425 6.525 15.375C5.175 12.325 4.5 9.225 4.5 6.075V4.5H13.35L14.7375 12.0375L10.4625 16.35C11.0125 17.325 11.625 18.25 12.3 19.125C12.975 20 13.7 20.8125 14.475 21.5625C15.2 22.2875 15.994 22.9815 16.857 23.6445C17.72 24.3075 18.651 24.926 19.65 25.5L24 21.15L31.5 22.6875V31.5H29.925Z" fill="white"/>
</svg>
