<svg width="232" height="347" viewBox="0 0 232 347" fill="none" xmlns="http://www.w3.org/2000/svg">
<path d="M106.758 139.545V9.16584L106.754 8.89809C106.754 3.98558 110.739 0 115.652 0C120.566 0 124.551 3.98558 124.551 8.89809L124.544 9.24101V139.542C121.622 139.285 118.664 139.147 115.673 139.147C112.667 139.147 109.694 139.287 106.758 139.545ZM124.105 204.227L124.111 204.511L124.112 204.526L124.122 204.588H124.112C124.112 209.437 120.18 213.369 115.332 213.369C110.483 213.369 106.551 209.437 106.551 204.588H106.542V204.34C106.542 203.022 106.612 201.717 106.758 200.437C106.758 200.407 106.758 200.378 106.773 200.352V200.337H106.77C106.086 197.243 104.605 194.437 102.561 192.161C100.297 189.635 97.3393 187.748 93.9828 186.806C92.39 186.342 90.7011 186.094 88.9631 186.094C87.2172 186.094 85.5342 186.342 83.9355 186.806C77.5831 188.606 72.6443 193.785 71.1771 200.284V222.387C72.3796 222.387 73.5746 222.432 74.7617 222.518C79.7112 222.836 84.4741 223.838 88.96 225.42C89.904 225.754 90.834 226.118 91.7656 226.513C97.1344 228.747 102.055 231.851 106.366 235.654C106.498 235.755 106.63 235.872 106.755 235.992C108.221 237.298 109.633 238.702 110.941 240.168C115.543 245.31 119.173 251.332 121.508 257.966C123.47 263.532 124.542 269.508 124.542 275.753V276.261H124.788C126.851 276.261 128.854 276.085 130.815 275.752C134.935 275.057 138.829 273.648 142.337 271.661C148.061 268.451 152.808 263.703 156.029 257.971C158.032 254.426 159.442 250.521 160.12 246.355C160.125 246.355 160.125 246.355 160.125 246.351V200.165L160.12 200.159C158.628 193.729 153.703 188.606 147.389 186.806C145.795 186.342 144.112 186.094 142.368 186.094H142.337C140.613 186.094 138.93 186.342 137.348 186.806C136.201 187.124 135.097 187.56 134.05 188.097C129.288 190.539 125.75 194.993 124.556 200.352C124.571 200.306 124.556 200.249 124.541 200.205V200.422C124.261 201.651 124.112 202.918 124.105 204.227ZM222.396 71.1631C227.31 71.1631 231.296 75.1487 231.296 80.0615L231.287 80.4423V231.285C231.287 234.278 231.169 237.236 230.953 240.168C230.486 246.256 229.562 252.192 228.182 257.971C226.746 264.092 224.813 270.048 222.417 275.753C219.936 281.748 216.948 287.482 213.504 292.927C213.372 293.129 213.241 293.333 213.109 293.548C209.019 299.939 204.316 305.906 199.09 311.351C197.987 312.494 196.864 313.626 195.701 314.734C190.26 319.957 184.304 324.659 177.92 328.753C177.718 328.869 177.516 329 177.314 329.134C171.884 332.571 166.134 335.564 160.123 338.063C154.419 340.442 148.48 342.385 142.342 343.82C136.563 345.2 130.627 346.13 124.544 346.597C121.611 346.812 118.634 346.93 115.641 346.93C112.653 346.93 109.691 346.812 106.756 346.597C100.676 346.13 94.74 345.2 88.9614 343.82C82.8324 342.385 76.8823 340.453 71.1771 338.063C65.1673 335.564 59.4177 332.571 53.9727 329.134C53.7859 329 53.5841 328.886 53.3761 328.753C49.4438 326.241 45.6709 323.485 42.0862 320.523L42.0405 320.482C39.8066 318.652 37.657 316.736 35.5795 314.734C34.432 313.626 33.2981 312.494 32.1967 311.351C30.194 309.273 28.2784 307.124 26.4485 304.89L26.4071 304.844C23.4451 301.259 20.6852 297.483 18.1774 293.548C18.0459 293.346 17.9298 293.144 17.7979 292.953C14.354 287.513 11.366 281.763 8.8691 275.753C6.47193 270.048 4.54094 264.092 3.10449 257.971C1.72438 252.192 0.80018 246.256 0.333655 240.168C0.11781 237.236 0 234.278 0 231.285C0 228.297 0.11781 225.319 0.333655 222.387H0V115.644H0.00136744C0.00136744 110.731 3.98697 106.746 8.89982 106.746C13.814 106.746 17.7996 110.731 17.7996 115.644L17.7979 115.759V240.168H18.202C18.7129 245.922 19.7289 251.539 21.2098 256.953C21.08 257.288 20.9635 257.636 20.8321 257.971H21.4837C23.2279 264.168 25.5779 270.12 28.4665 275.753C30.558 279.863 32.9402 283.811 35.5795 287.558C37.0344 289.616 38.5566 291.617 40.1706 293.548C40.3728 293.813 40.59 294.075 40.8072 294.318C40.8072 294.333 40.8226 294.362 40.8472 294.379C43.7693 299.14 47.7901 303.161 52.5527 306.077C52.568 306.108 52.5926 306.123 52.608 306.123C52.8556 306.342 53.1189 306.557 53.3761 306.76C55.3084 308.374 57.3142 309.896 59.3781 311.351C63.1188 313.99 67.0675 316.372 71.1771 318.474C76.8106 321.352 82.762 323.702 88.9614 325.447V326.1C89.2934 325.967 89.6424 325.851 89.9774 325.72C95.392 327.201 101.008 328.217 106.756 328.728V329.134H124.544V328.728C130.651 328.187 136.603 327.07 142.342 325.447C148.54 323.702 154.49 321.352 160.123 318.474C164.233 316.372 168.181 313.99 171.924 311.351C173.986 309.896 175.987 308.374 177.92 306.76C182.728 302.782 187.153 298.372 191.131 293.548C192.73 291.617 194.266 289.616 195.701 287.558C198.346 283.811 200.729 279.863 202.835 275.753C205.709 270.12 208.059 264.168 209.813 257.971C211.441 252.238 212.558 246.28 213.095 240.168C213.372 237.236 213.504 234.278 213.504 231.285V80.3675L213.497 80.0615C213.497 75.1487 217.483 71.1631 222.396 71.1631ZM169.023 35.5808C173.937 35.5808 177.923 39.5664 177.923 44.479L177.921 44.5937V145.969H177.283C177.502 146.121 177.719 146.269 177.921 146.419V160.91C172.456 156.517 166.493 152.692 160.125 149.525V44.479C160.125 39.5664 164.11 35.5808 169.023 35.5808ZM62.2773 35.5822C67.1915 35.5822 71.1771 39.5678 71.1771 44.4806L71.1754 44.6046L71.1771 44.6122V173.246C74.7816 171.174 78.7689 169.719 83.0219 169.004C84.9529 168.686 86.9402 168.515 88.9631 168.515C90.9795 168.515 92.9668 168.686 94.8978 169.004C99.1494 169.719 103.159 171.174 106.758 173.247C110.11 175.162 113.104 177.606 115.673 180.462C118.211 177.606 121.202 175.178 124.541 173.278C128.156 171.183 132.166 169.718 136.432 169.004C138.349 168.686 140.321 168.515 142.337 168.515H142.368C144.385 168.515 146.376 168.686 148.309 169.004C152.545 169.707 156.525 171.159 160.125 173.232C165.757 176.442 170.433 181.143 173.608 186.806C175.859 190.771 177.355 195.225 177.921 199.957V240.414C177.921 246.574 176.875 252.484 174.959 257.971C172.637 264.603 169.038 270.629 164.462 275.752C163.097 277.288 161.646 278.744 160.125 280.094C154.998 284.681 148.961 288.264 142.337 290.591C136.835 292.506 130.932 293.548 124.788 293.548H124.541H121.501L121.502 293.545L121.494 293.55H101.983C102.783 292.2 103.464 290.81 104.056 289.353C105.8 285.172 106.755 280.571 106.755 275.753V271.399C106.656 271.338 106.553 271.283 106.453 271.223C105.877 266.45 104.302 261.959 101.983 257.966C96.4903 248.431 86.4447 241.639 75.4762 240.391C67.0784 239.432 59.5922 241.741 53.3788 243.099V133.82C53.5964 133.688 53.7996 133.557 54.0048 133.425H53.3788V44.6122L53.3805 44.6046L53.3788 44.4806C53.3788 39.5678 57.3644 35.5822 62.2773 35.5822ZM124.362 280.202C124.125 283.079 123.659 285.891 122.983 288.62C123.659 285.892 124.126 283.08 124.362 280.202ZM122.983 288.625C122.875 289.064 122.758 289.5 122.639 289.934C122.76 289.5 122.875 289.064 122.983 288.625Z" fill="white"/>
<path fill-rule="evenodd" clip-rule="evenodd" d="M124.561 200.33C124.561 200.337 124.559 200.345 124.556 200.352C124.558 200.345 124.56 200.337 124.561 200.33ZM115.332 213.369C110.483 213.369 106.552 209.437 106.552 204.588H106.543V204.34C106.543 203.022 106.613 201.717 106.758 200.438C106.758 200.407 106.758 200.378 106.773 200.352L106.77 200.337C106.086 197.243 104.605 194.437 102.561 192.16C100.297 189.635 97.3398 187.748 93.9826 186.806C92.3901 186.342 90.7009 186.094 88.9629 186.094C87.2174 186.094 85.5343 186.342 83.9356 186.806C77.5833 188.606 72.6444 193.785 71.1772 200.285V222.386C72.3798 222.386 73.5744 222.432 74.7619 222.518C79.7113 222.837 84.4739 223.839 88.9602 225.421C89.9038 225.754 90.8341 226.118 91.7662 226.513C97.1346 228.747 102.055 231.851 106.366 235.654C106.498 235.755 106.63 235.872 106.755 235.992C108.221 237.298 109.633 238.702 110.941 240.168C115.543 245.31 119.174 251.332 121.509 257.966C123.47 263.532 124.542 269.508 124.542 275.753V276.261H124.789C126.851 276.261 128.854 276.085 130.815 275.752C134.935 275.057 138.829 273.648 142.337 271.661C148.061 268.451 152.808 263.703 156.029 257.971C158.032 254.426 159.442 250.521 160.12 246.355C160.125 246.355 160.125 246.355 160.125 246.35V200.165L160.12 200.159C158.629 193.729 153.704 188.606 147.389 186.806C145.795 186.342 144.112 186.094 142.368 186.094H142.337C140.613 186.094 138.93 186.342 137.348 186.806C136.201 187.124 135.098 187.56 134.05 188.097C129.295 190.535 125.759 194.98 124.561 200.33C124.567 200.289 124.554 200.243 124.541 200.205V200.423C124.261 201.651 124.112 202.918 124.105 204.227L124.111 204.51L124.112 204.526L124.122 204.588H124.112C124.112 209.437 120.18 213.369 115.332 213.369Z" fill="#FE434C"/>
</svg>
