<svg width="183" height="45" viewBox="0 0 183 45" fill="none" xmlns="http://www.w3.org/2000/svg">
<g clip-path="url(#clip0_973_4478)">
<path d="M179.997 41.2888C180.109 41.2899 180.22 41.2682 180.323 41.2249C180.426 41.1817 180.519 41.1179 180.596 41.0375C180.673 40.9571 180.733 40.8618 180.771 40.7576C180.81 40.6533 180.826 40.5423 180.82 40.4314C180.82 39.8233 180.451 39.5327 179.693 39.5327H178.468V42.7164H178.929V41.3286H179.495L179.508 41.3455L180.386 42.7164H180.879L179.934 41.2976L179.997 41.2888ZM179.464 40.9699H178.93V39.8935H179.607C179.957 39.8935 180.355 39.9503 180.355 40.405C180.355 40.928 179.952 40.9699 179.461 40.9699" fill="white"/>
<path d="M0.569336 6.47754H7.36767V31.0716H19.9534V37.3026H0.569336V6.47754Z" fill="white"/>
<path d="M22.9589 16.4025H29.4899V37.2913H22.9589V16.4025ZM26.2244 6.01758C26.9737 6.01771 27.7061 6.23851 28.3291 6.65205C28.952 7.06559 29.4375 7.65329 29.7241 8.34086C30.0108 9.02843 30.0857 9.78497 29.9395 10.5148C29.7932 11.2447 29.4323 11.9151 28.9024 12.4413C28.3726 12.9674 27.6975 13.3257 26.9626 13.4708C26.2277 13.616 25.4659 13.5414 24.7737 13.2566C24.0814 12.9718 23.4898 12.4895 23.0735 11.8707C22.6572 11.252 22.4351 10.5245 22.4351 9.78034C22.4351 9.28615 22.5331 8.7968 22.7235 8.34024C22.914 7.88367 23.1931 7.46884 23.545 7.11943C23.8968 6.77001 24.3146 6.49287 24.7743 6.30381C25.2341 6.11475 25.7268 6.01749 26.2244 6.01758Z" fill="white"/>
<path d="M56.8101 6.47266H63.341V24.8946L70.7428 16.3927H78.75L70.1782 26.0635L78.5697 37.2997H70.3611L63.4281 26.9743H63.3424V37.2984H56.8114L56.8101 6.47266Z" fill="white"/>
<path d="M33.1108 16.4043H39.3826V19.259H39.4717C40.0982 18.1931 41.0044 17.3161 42.0935 16.7218C43.1827 16.1275 44.4139 15.8382 45.6557 15.8847C52.2786 15.8847 53.4977 20.2123 53.4977 25.8345V37.2897H46.9667V27.1338C46.9667 24.7095 46.9218 21.5934 43.5651 21.5934C40.1704 21.5934 39.6466 24.2332 39.6466 26.9575V37.287H33.1156L33.1108 16.4043Z" fill="white"/>
<path d="M92.5039 24.4171C92.5164 23.8908 92.4212 23.3676 92.224 22.8789C92.0269 22.3903 91.732 21.9465 91.3571 21.5744C90.9822 21.2024 90.5351 20.9097 90.043 20.7143C89.5509 20.5188 89.024 20.4246 88.4941 20.4374C87.353 20.3669 86.2297 20.7446 85.3663 21.489C84.503 22.2335 83.9688 23.2851 83.8789 24.4171H92.5039ZM98.0361 33.6736C96.9509 34.9807 95.5865 36.0317 94.0418 36.7505C92.4971 37.4693 90.8109 37.8379 89.1051 37.8296C82.5741 37.8296 77.3452 33.5 77.3452 26.7954C77.3452 20.0908 82.5734 15.7632 89.1051 15.7632C95.2095 15.7632 99.0376 20.0874 99.0376 26.7954V28.8291H83.8789C84.0676 29.9825 84.6697 31.0293 85.5742 31.7767C86.4787 32.524 87.6247 32.9215 88.8009 32.8959C89.7305 32.8902 90.6439 32.6537 91.4579 32.2078C92.272 31.762 92.9608 31.121 93.4617 30.3433L98.0361 33.6736Z" fill="white"/>
<path d="M112.651 21.4515C109.385 21.4515 107.426 23.617 107.426 26.7723C107.426 29.9277 109.385 32.0952 112.651 32.0952C115.917 32.0952 117.88 29.9331 117.88 26.7723C117.88 23.6116 115.92 21.4515 112.651 21.4515ZM123.893 37.287H117.88V34.5167H117.791C117.037 35.5244 116.059 36.3454 114.932 36.9159C113.806 37.4864 112.563 37.791 111.298 37.8059C105.023 37.8059 100.89 33.308 100.89 26.9473C100.89 21.1055 104.548 15.7415 110.561 15.7415C113.264 15.7415 115.788 16.4759 117.269 18.5117H117.355V6.4707H123.892L123.893 37.287Z" fill="white"/>
<path d="M167.982 37.2995H161.451V27.1416C161.451 24.7194 161.408 21.6012 158.055 21.6012C154.653 21.6012 154.133 24.2403 154.133 26.9653V37.2988H147.602V16.4101H153.871V19.2647H153.959C154.586 18.1993 155.493 17.3227 156.583 16.7285C157.672 16.1343 158.903 15.8447 160.145 15.8905C166.765 15.8905 167.985 20.2147 167.985 25.8403L167.982 37.2995ZM140.232 13.5547C139.483 13.5549 138.75 13.3342 138.127 12.9207C137.503 12.5072 137.017 11.9195 136.731 11.2317C136.444 10.544 136.368 9.78713 136.514 9.05694C136.661 8.32675 137.021 7.65598 137.551 7.12947C138.081 6.60295 138.757 6.24433 139.492 6.09896C140.227 5.95359 140.989 6.028 141.681 6.31277C142.374 6.59755 142.966 7.0799 143.383 7.69883C143.799 8.31776 144.022 9.04547 144.022 9.78994C144.022 10.2843 143.924 10.7737 143.734 11.2305C143.543 11.6872 143.264 12.1022 142.912 12.4518C142.56 12.8014 142.143 13.0787 141.683 13.2679C141.223 13.4572 140.73 13.5546 140.232 13.5547ZM143.498 37.2995H136.96V16.4101H143.498V37.2995ZM171.238 0.00298248H133.678C132.826 -0.00657229 132.004 0.320405 131.394 0.912063C130.785 1.50372 130.436 2.31165 130.426 3.15832V40.6163C130.436 41.4634 130.784 42.2719 131.394 42.8642C132.004 43.4564 132.825 43.7841 133.678 43.775H171.238C172.093 43.7857 172.917 43.459 173.529 42.8668C174.141 42.2745 174.492 41.4651 174.504 40.6163V3.15562C174.491 2.30727 174.141 1.49842 173.528 0.906776C172.916 0.315133 172.092 -0.01091 171.238 0.000278742" fill="white"/>
<path d="M179.52 38.1143C178.726 38.1218 177.966 38.4416 177.408 39.0037C176.851 39.5658 176.54 40.3244 176.543 41.1136C176.547 41.9028 176.866 42.6583 177.429 43.215C177.992 43.7717 178.754 44.0843 179.549 44.0843C180.344 44.0843 181.106 43.7717 181.669 43.215C182.232 42.6583 182.551 41.9028 182.555 41.1136C182.558 40.3244 182.247 39.5658 181.69 39.0037C181.132 38.4416 180.373 38.1218 179.578 38.1143H179.52ZM179.52 43.7425C178.999 43.7511 178.487 43.6061 178.049 43.3256C177.611 43.0452 177.266 42.6421 177.059 42.1672C176.851 41.6922 176.79 41.1669 176.883 40.6575C176.976 40.1482 177.22 39.6777 177.582 39.3056C177.944 38.9335 178.41 38.6764 178.919 38.567C179.429 38.4576 179.959 38.5006 180.444 38.6908C180.929 38.8809 181.346 39.2095 181.643 39.6351C181.94 40.0607 182.103 40.5641 182.111 41.0818C182.111 41.0966 182.111 41.1108 182.111 41.1257C182.126 41.8047 181.868 42.4617 181.395 42.9522C180.922 43.4427 180.273 43.7265 179.589 43.7412H179.521" fill="white"/>
</g>
<defs>
<clipPath id="clip0_973_4478">
<rect width="181.986" height="44.1383" fill="white" transform="translate(0.569336)"/>
</clipPath>
</defs>
</svg>
