<svg width="119" height="21" viewBox="0 0 119 21" fill="none" xmlns="http://www.w3.org/2000/svg">
<path d="M10.0814 0.753174L12.6979 7.04389L19.4892 7.58835L14.3149 12.0207L15.8958 18.6479L10.0814 15.0965L4.26706 18.6479L5.8479 12.0207L0.6736 7.58835L7.46496 7.04389L10.0814 0.753174Z" fill="#FE434C"/>
<path d="M34.8109 0.753174L37.4274 7.04389L44.2187 7.58835L39.0444 12.0207L40.6253 18.6479L34.8109 15.0965L28.9966 18.6479L30.5774 12.0207L25.4031 7.58835L32.1944 7.04389L34.8109 0.753174Z" fill="#FE434C"/>
<path d="M59.5409 0.753174L62.1573 7.04389L68.9487 7.58835L63.7744 12.0207L65.3552 18.6479L59.5409 15.0965L53.7265 18.6479L55.3074 12.0207L50.1331 7.58835L56.9244 7.04389L59.5409 0.753174Z" fill="#FE434C"/>
<path d="M84.2709 0.753174L86.8873 7.04389L93.6787 7.58835L88.5044 12.0207L90.0852 18.6479L84.2709 15.0965L78.4565 18.6479L80.0374 12.0207L74.8631 7.58835L81.6544 7.04389L84.2709 0.753174Z" fill="#FE434C"/>
<path d="M109.001 0.753174L111.617 7.04389L118.409 7.58835L113.234 12.0207L114.815 18.6479L109.001 15.0965L103.186 18.6479L104.767 12.0207L99.593 7.58835L106.384 7.04389L109.001 0.753174Z" fill="#FE434C"/>
</svg>
